<?xml version="1.0" encoding="utf-8"?>
<!-- Generator: Adobe Illustrator 24.1.3, SVG Export Plug-In . SVG Version: 6.00 Build 0)  -->
<svg version="1.1" id="Camada_1" xmlns="http://www.w3.org/2000/svg" xmlns:xlink="http://www.w3.org/1999/xlink" x="0px" y="0px"
	 viewBox="0 0 322.3 71.4" style="enable-background:new 0 0 322.3 71.4;" xml:space="preserve">
<style type="text/css">
	.st0{fill:#FFFFFF;}
	.st1{fill:url(#SVGID_1_);}
	.st2{fill:none;}
</style>
<g>
	<g>
		<path class="st0" d="M25.5,29.7c-1.3,1.3-1.9,2.8-1.9,4.6v5.2c0,1.8,0.6,3.3,1.9,4.6c1.3,1.3,2.8,1.9,4.6,1.9h10.4v-4.3H30.1
			c-0.6,0-1.1-0.2-1.5-0.6c-0.4-0.4-0.6-0.9-0.6-1.5v-5.2c0-0.6,0.2-1.1,0.6-1.5s0.9-0.7,1.5-0.7h10.4v-4.3H30.1
			C28.3,27.8,26.8,28.4,25.5,29.7z"/>
		<path class="st0" d="M60.6,28.7c-1-0.6-2.1-0.9-3.3-0.9h-6c-1.8,0-3.3,0.6-4.6,1.9c-1.3,1.3-1.9,2.8-1.9,4.6v5.2
			c0,1.8,0.6,3.3,1.9,4.6s2.8,1.9,4.6,1.9h6c1.8,0,3.3-0.6,4.6-1.9s1.9-2.8,1.9-4.6v-5.2c0-1.2-0.3-2.2-0.9-3.3
			C62.4,30,61.6,29.2,60.6,28.7z M59.5,39.5c0,0.6-0.2,1.1-0.6,1.5c-0.4,0.4-0.9,0.6-1.5,0.6h-6c-0.6,0-1.1-0.2-1.5-0.6
			c-0.4-0.4-0.6-0.9-0.6-1.5v-5.2c0-0.6,0.2-1.1,0.6-1.5c0.4-0.4,0.9-0.7,1.5-0.7h6c0.3,0,0.6,0.1,0.9,0.2c0.3,0.1,0.5,0.3,0.7,0.5
			c0.2,0.2,0.3,0.4,0.5,0.7c0.1,0.3,0.2,0.5,0.2,0.8V39.5z"/>
		<path class="st0" d="M82.9,27.8h-8.2c-1.2,0-2.2,0.3-3.3,0.9c-1,0.6-1.8,1.4-2.4,2.4c-0.6,1-0.9,2.1-0.9,3.3v5.2
			c0,1.8,0.6,3.3,1.9,4.6S73,46,74.8,46h8.2h4.3V27.8v-9.3h-4.3V27.8z M82.9,41.7h-8.2c-0.6,0-1.1-0.2-1.5-0.6
			c-0.4-0.4-0.6-0.9-0.6-1.5v-5.2c0-0.4,0.1-0.8,0.3-1.1c0.2-0.3,0.5-0.6,0.8-0.8c0.3-0.2,0.7-0.3,1.1-0.3h8.2V41.7z"/>
		<path class="st0" d="M109.8,31c-0.6-1-1.4-1.8-2.4-2.4c-1-0.6-2.1-0.9-3.3-0.9h-6c-1.8,0-3.3,0.6-4.6,1.9
			c-1.3,1.3-1.9,2.8-1.9,4.6v5.2c0,1.8,0.6,3.3,1.9,4.6c1.3,1.3,2.8,1.9,4.6,1.9h10.4v-4.3H98.1c-0.4,0-0.8-0.1-1.1-0.3
			s-0.6-0.5-0.8-0.8S96,39.9,96,39.5v-0.4h11.9c0.8,0,1.4-0.3,1.9-0.8c0.5-0.5,0.8-1.2,0.8-2v-2C110.6,33.1,110.4,32,109.8,31z
			 M106.3,34.7H96v-0.4c0-0.6,0.2-1.1,0.6-1.5c0.4-0.4,0.9-0.6,1.5-0.6h6c0.4,0,0.8,0.1,1.1,0.3c0.3,0.2,0.6,0.4,0.8,0.8
			c0.2,0.3,0.3,0.7,0.3,1.1V34.7z"/>
	</g>
	<g>
		<path class="st0" d="M148.6,29.7c-1.3,1.3-1.9,2.8-1.9,4.6v5.2c0,1.8,0.6,3.3,1.9,4.6c1.3,1.3,2.8,1.9,4.6,1.9h10.4v-4.3h-10.4
			c-0.6,0-1.1-0.2-1.5-0.6c-0.4-0.4-0.6-0.9-0.6-1.5v-5.2c0-0.6,0.2-1.1,0.6-1.5s0.9-0.7,1.5-0.7h10.4v-4.3h-10.4
			C151.4,27.8,149.9,28.4,148.6,29.7z"/>
		<path class="st0" d="M169.9,29.7c-1.3,1.3-1.9,2.8-1.9,4.6v5.2c0,1.8,0.6,3.3,1.9,4.6c1.3,1.3,2.8,1.9,4.6,1.9H187V27.8h-12.5
			C172.7,27.8,171.1,28.4,169.9,29.7z M182.7,41.7h-8.2c-0.6,0-1.1-0.2-1.5-0.6c-0.4-0.4-0.6-0.9-0.6-1.5v-5.2
			c0-0.6,0.2-1.1,0.6-1.5s0.9-0.7,1.5-0.7h8.2V41.7z"/>
		<path class="st0" d="M191.4,34.3V46h4.3V34.3c0-0.6,0.2-1.1,0.6-1.5c0.4-0.4,0.9-0.7,1.5-0.7v-4.3c-1.8,0-3.3,0.6-4.6,1.9
			C192,31,191.4,32.5,191.4,34.3z"/>
		<path class="st0" d="M215.5,41.6c-1.2-0.2-2.3-0.5-3.3-1c-1-0.5-2-1.3-2.8-2.2c-0.9-0.9-1.5-2.2-2.1-3.7c-0.5-1.5-0.8-3.3-0.8-5.3
			v-1.6h-4.3v1.6c0,4.7,1.2,8.5,3.7,11.6c2.7,3.4,6.4,5,10.9,5h0.5c0.7,0,1.3-0.2,1.7-0.7c0.5-0.5,0.7-1.1,0.7-1.7V27.8h-4.3V41.6z"
			/>
		<path class="st0" d="M226.1,29.7c-1.3,1.3-1.9,2.8-1.9,4.6v5.2c0,1.8,0.6,3.3,1.9,4.6c1.3,1.3,2.8,1.9,4.6,1.9h12.5V27.8h-12.5
			C228.9,27.8,227.4,28.4,226.1,29.7z M238.9,41.7h-8.2c-0.6,0-1.1-0.2-1.5-0.6c-0.4-0.4-0.6-0.9-0.6-1.5v-5.2
			c0-0.6,0.2-1.1,0.6-1.5c0.4-0.4,0.9-0.7,1.5-0.7h8.2V41.7z"/>
		<rect x="247.6" y="18.5" class="st0" width="4.3" height="27.5"/>
		<path class="st0" d="M267.4,28h-6.7v-9.3h-4.3v12.9v14.6h4.3V32.4h6.7c0.7,0,1.3,0.2,1.8,0.5s1,0.8,1.3,1.3s0.5,1.2,0.5,1.8v10.3
			h4.3V36c0-2.2-0.8-4.1-2.3-5.6C271.4,28.8,269.6,28,267.4,28z"/>
		<path class="st0" d="M297.8,31c-0.6-1-1.4-1.8-2.4-2.4c-1-0.6-2.1-0.9-3.3-0.9h-6c-1.8,0-3.3,0.6-4.6,1.9
			c-1.3,1.3-1.9,2.8-1.9,4.6v5.2c0,1.8,0.6,3.3,1.9,4.6c1.3,1.3,2.8,1.9,4.6,1.9h6c1.8,0,3.3-0.6,4.6-1.9c1.3-1.3,1.9-2.8,1.9-4.6
			v-5.2C298.7,33.1,298.4,32,297.8,31z M294.4,39.5c0,0.6-0.2,1.1-0.6,1.5c-0.4,0.4-0.9,0.6-1.5,0.6h-6c-0.6,0-1.1-0.2-1.5-0.6
			c-0.4-0.4-0.6-0.9-0.6-1.5v-5.2c0-0.6,0.2-1.1,0.6-1.5c0.4-0.4,0.9-0.7,1.5-0.7h6c0.3,0,0.6,0.1,0.9,0.2c0.3,0.1,0.5,0.3,0.7,0.5
			c0.2,0.2,0.3,0.4,0.5,0.7c0.1,0.3,0.2,0.5,0.2,0.8V39.5z"/>
	</g>
	<linearGradient id="SVGID_1_" gradientUnits="userSpaceOnUse" x1="117.5991" y1="36.8962" x2="139.7767" y2="36.8962">
		<stop  offset="0" style="stop-color:#CA446B"/>
		<stop  offset="1" style="stop-color:#A7377F"/>
	</linearGradient>
	<polygon class="st1" points="117.6,20.9 117.6,30.7 134.1,39.7 120.4,47.9 120.4,44.6 126.4,40.9 126.4,37.5 117.6,43 117.6,52.9 
		139.8,39.6 120.4,29.1 120.4,25.7 139.8,36.5 139.8,33.3 	"/>
</g>
<path class="st2" d="M-2243.2,93.7v4.9c0.7,0,1.3,0.1,2,0.1c18.9,0,34.3-15.4,34.3-34.3c0-18.9-15.4-34.3-34.3-34.3
	s-34.3,15.4-34.3,34.3c0,16.4,11.6,30.1,27,33.5v-4.2H-2243.2z"/>
</svg>
