<?xml version="1.0" encoding="UTF-8" standalone="no"?>
<!DOCTYPE svg PUBLIC "-//W3C//DTD SVG 1.1//EN" "http://www.w3.org/Graphics/SVG/1.1/DTD/svg11.dtd">
<svg version="1.1" xmlns="http://www.w3.org/2000/svg" xmlns:xlink="http://www.w3.org/1999/xlink" preserveAspectRatio="xMidYMid meet" viewBox="0 0 560 70" width="560" height="70"><defs><path d="M0 32.15C0 33.21 0 41.67 0 42.73C0 46.4 1.22 49.45 3.86 52.09C6.51 54.74 9.56 55.96 13.22 55.96C14.63 55.96 21.67 55.96 34.36 55.96L34.36 47.21C21.67 47.21 14.63 47.21 13.22 47.21C12 47.21 10.98 46.8 10.17 45.99C9.35 45.17 8.95 44.16 8.95 42.94C8.95 41.88 8.95 33.41 8.95 32.35C8.95 31.13 9.35 30.12 10.17 29.3C10.98 28.49 12 27.88 13.22 27.88C14.63 27.88 21.67 27.88 34.36 27.88L34.36 19.13C21.67 19.13 14.63 19.13 13.22 19.13C9.56 18.92 6.51 20.15 3.86 22.79C1.22 25.44 0 28.49 0 32.15Z" id="b1ksVYyYW"></path><path d="M68.52 18.92C67.3 18.92 57.54 18.92 56.32 18.92C52.66 18.92 49.61 20.15 46.97 22.79C44.32 25.44 43.1 28.49 43.1 32.15C43.1 33.21 43.1 41.67 43.1 42.73C43.1 46.4 44.32 49.45 46.97 52.09C49.61 54.74 52.66 55.96 56.32 55.96C57.54 55.96 67.3 55.96 68.52 55.96C72.18 55.96 75.23 54.74 77.87 52.09C80.51 49.45 81.73 46.4 81.73 42.73C81.73 41.67 81.73 33.21 81.73 32.15C81.73 29.71 81.12 27.67 79.9 25.44C78.89 23.4 77.26 21.77 75.23 20.76C73.19 19.53 70.96 18.92 68.52 18.92ZM72.99 42.73C72.99 43.95 72.58 44.97 71.77 45.78C70.96 46.6 69.94 47.01 68.72 47.01C67.5 47.01 57.74 47.01 56.52 47.01C55.3 47.01 54.29 46.6 53.47 45.78C52.66 44.97 52.25 43.95 52.25 42.73C52.25 41.67 52.25 33.21 52.25 32.15C52.25 30.93 52.66 29.91 53.47 29.1C54.29 28.28 55.3 27.67 56.52 27.67C57.74 27.67 67.5 27.67 68.72 27.67C69.33 27.67 69.94 27.88 70.55 28.08C71.16 28.28 71.57 28.69 71.97 29.1C72.38 29.51 72.58 29.91 72.99 30.52C73.19 31.13 73.4 31.54 73.4 32.15C73.4 32.86 73.4 36.38 73.4 42.73C73.18 42.73 73.04 42.73 72.99 42.73Z" id="b4qOjdvKe"></path><path d="M120.57 18.92C110.56 18.92 105.01 18.92 103.89 18.92C101.46 18.92 99.42 19.53 97.19 20.76C95.15 21.98 93.53 23.6 92.31 25.64C91.09 27.67 90.48 29.91 90.48 32.35C90.48 33.41 90.48 41.88 90.48 42.94C90.48 46.6 91.7 49.65 94.34 52.3C96.98 54.94 100.44 55.96 104.1 55.96C105.21 55.96 110.77 55.96 120.77 55.96L129.51 55.96L129.51 18.92L129.51 0L120.77 0L120.77 18.92L120.57 18.92ZM120.57 47.21C110.56 47.21 105.01 47.21 103.89 47.21C102.68 47.21 101.66 46.8 100.85 45.99C100.03 45.17 99.63 44.16 99.63 42.94C99.63 41.88 99.63 33.41 99.63 32.35C99.63 31.54 99.83 30.73 100.24 30.12C100.64 29.51 101.25 28.9 101.86 28.49C102.47 28.08 103.28 27.88 104.1 27.88C105.21 27.88 110.77 27.88 120.77 27.88L120.77 47.21L120.57 47.21Z" id="fVe2dSZVX"></path><path d="M170.38 20.55C168.35 19.33 166.11 18.72 163.67 18.72C162.45 18.72 152.69 18.72 151.47 18.72C147.81 18.72 144.76 19.94 142.12 22.59C139.48 25.23 138.26 28.28 138.26 31.95C138.26 33.01 138.26 41.47 138.26 42.53C138.26 46.19 139.48 49.24 142.12 51.89C144.76 54.53 147.81 55.76 151.47 55.76C152.88 55.76 159.93 55.76 172.62 55.76L172.62 47.01C159.93 47.01 152.88 47.01 151.47 47.01C150.66 47.01 149.84 46.8 149.23 46.4C148.62 45.99 148.01 45.38 147.61 44.77C147.2 44.16 147.2 43.55 147.2 42.73C147.2 42.68 147.2 42.41 147.2 41.92C161.72 41.92 169.78 41.92 171.4 41.92C173.02 41.92 174.24 41.31 175.26 40.29C176.28 39.27 176.89 37.85 176.89 36.22C176.89 35.81 176.89 32.56 176.89 32.15C176.89 29.71 176.48 27.47 175.26 25.44C174.04 23.4 172.41 21.77 170.38 20.55ZM147.2 32.97C147.2 32.48 147.2 32.21 147.2 32.15C147.2 30.93 147.61 29.91 148.42 29.1C149.23 28.28 150.25 27.88 151.47 27.88C152.69 27.88 162.45 27.88 163.67 27.88C164.48 27.88 165.3 28.08 165.91 28.49C166.52 28.9 167.13 29.3 167.53 30.12C167.94 30.73 168.14 31.54 168.14 32.35C168.14 32.4 168.14 32.6 168.14 32.97L147.2 32.97Z" id="d8L29SQ1Eu"></path><path d="M250.28 32.15C250.28 33.21 250.28 41.67 250.28 42.73C250.28 46.4 251.5 49.45 254.15 52.09C256.79 54.74 259.84 55.96 263.5 55.96C264.91 55.96 271.96 55.96 284.64 55.96L284.64 47.21C271.96 47.21 264.91 47.21 263.5 47.21C262.28 47.21 261.26 46.8 260.45 45.99C259.64 45.17 259.23 44.16 259.23 42.94C259.23 41.88 259.23 33.41 259.23 32.35C259.23 31.13 259.64 30.12 260.45 29.3C261.26 28.49 262.28 27.88 263.5 27.88C264.91 27.88 271.96 27.88 284.64 27.88L284.64 19.13C271.96 19.13 264.91 19.13 263.5 19.13C259.84 18.92 256.79 20.15 254.15 22.79C251.5 25.44 250.28 28.49 250.28 32.15Z" id="b1KNSAzQj5"></path><path d="M293.59 32.15C293.59 33.21 293.59 41.67 293.59 42.73C293.59 46.4 294.81 49.45 297.45 52.09C300.1 54.74 303.15 55.96 306.81 55.96C308.5 55.96 316.97 55.96 332.22 55.96L332.22 18.92C316.97 18.92 308.5 18.92 306.81 18.92C303.15 18.92 299.89 20.15 297.45 22.79C294.81 25.44 293.59 28.49 293.59 32.15ZM306.81 47.21C305.59 47.21 304.57 46.8 303.76 45.99C302.94 45.17 302.54 44.16 302.54 42.94C302.54 41.88 302.54 33.41 302.54 32.35C302.54 31.13 302.94 30.12 303.76 29.3C304.57 28.49 305.59 27.88 306.81 27.88C307.92 27.88 313.47 27.88 323.48 27.88L323.48 47.21C313.47 47.21 307.92 47.21 306.81 47.21Z" id="dgnSpFCVQ"></path><path d="M341.17 55.96L349.91 55.96C349.91 41.67 349.91 33.74 349.91 32.15C349.91 30.93 350.32 29.91 351.13 29.1C351.94 28.28 352.96 27.67 354.18 27.67C354.18 26.8 354.18 19.8 354.18 18.92C350.52 18.92 347.47 20.15 344.83 22.79C342.39 25.44 341.17 28.49 341.17 32.15C341.17 35.33 341.17 43.26 341.17 55.96Z" id="d1i4ZDt1p9"></path><path d="M390.17 47.01C387.73 46.6 385.49 45.99 383.46 44.97C381.42 43.95 379.39 42.33 377.76 40.49C375.93 38.66 374.71 36.02 373.49 32.97C372.48 29.91 371.87 26.25 371.87 22.18C371.87 21.96 371.87 20.88 371.87 18.92L363.12 18.92C363.12 20.88 363.12 21.96 363.12 22.18C363.12 31.74 365.56 39.48 370.65 45.78C376.14 52.7 383.66 55.96 392.81 55.96C392.91 55.96 393.72 55.96 393.82 55.96C395.25 55.96 396.47 55.55 397.28 54.53C398.3 53.52 398.7 52.3 398.7 51.08C398.7 48.93 398.7 38.22 398.7 18.92L389.96 18.92L389.96 47.01C390.07 47.01 390.14 47.01 390.17 47.01Z" id="c1Swbw1l"></path><path d="M407.85 32.15C407.85 33.21 407.85 41.67 407.85 42.73C407.85 46.4 409.07 49.45 411.72 52.09C414.36 54.74 417.41 55.96 421.07 55.96C422.76 55.96 431.24 55.96 446.48 55.96L446.48 18.92C431.24 18.92 422.76 18.92 421.07 18.92C417.41 18.92 414.36 20.15 411.72 22.79C409.07 25.44 407.85 28.49 407.85 32.15ZM421.07 47.21C419.85 47.21 418.83 46.8 418.02 45.99C417.21 45.17 416.8 44.16 416.8 42.94C416.8 41.88 416.8 33.41 416.8 32.35C416.8 31.13 417.21 30.12 418.02 29.3C418.83 28.49 419.85 27.88 421.07 27.88C422.18 27.88 427.74 27.88 437.74 27.88L437.74 47.21C427.74 47.21 422.18 47.21 421.07 47.21Z" id="b53npI69lu"></path><path d="M464.17 0C464.17 0 464.17 0 464.17 0C464.17 33.58 464.17 52.23 464.17 55.96C464.17 55.96 464.17 55.96 464.17 55.96C458.93 55.96 456.01 55.96 455.43 55.96C455.43 55.96 455.43 55.96 455.43 55.96C455.43 22.38 455.43 3.73 455.43 0C455.43 0 455.43 0 455.43 0C460.68 0 463.59 0 464.17 0Z" id="hycUt03lb"></path><path d="M482.06 19.33L482.06 0.41L473.32 0.41L473.32 26.66L473.32 56.37L482.06 56.37L482.06 28.28C490.24 28.28 494.78 28.28 495.69 28.28C497.11 28.28 498.33 28.69 499.35 29.3C500.36 29.91 501.38 30.93 501.99 31.95C502.6 32.97 503.01 34.39 503.01 35.61C503.01 37.01 503.01 43.99 503.01 56.57L511.75 56.57C511.75 43.99 511.75 37.01 511.75 35.61C511.75 31.13 510.12 27.27 507.07 24.22C503.82 20.96 500.16 19.33 495.69 19.33C493.87 19.33 489.33 19.33 482.06 19.33Z" id="b5hi5AnzF"></path><path d="M552.62 20.55C550.58 19.33 548.35 18.72 545.91 18.72C544.69 18.72 534.93 18.72 533.71 18.72C530.05 18.72 527 19.94 524.35 22.59C521.71 25.23 520.49 28.28 520.49 31.95C520.49 33.01 520.49 41.47 520.49 42.53C520.49 46.19 521.71 49.24 524.35 51.89C527 54.53 530.05 55.76 533.71 55.76C534.93 55.76 544.69 55.76 545.91 55.76C549.57 55.76 552.62 54.53 555.26 51.89C557.9 49.24 559.12 46.19 559.12 42.53C559.12 41.47 559.12 33.01 559.12 31.95C559.32 29.71 558.71 27.47 557.49 25.44C556.28 23.4 554.65 21.77 552.62 20.55ZM550.58 42.73C550.58 43.95 550.18 44.97 549.36 45.78C548.55 46.6 547.53 47.01 546.31 47.01C545.09 47.01 535.33 47.01 534.11 47.01C532.89 47.01 531.88 46.6 531.06 45.78C530.25 44.97 529.84 43.95 529.84 42.73C529.84 41.67 529.84 33.21 529.84 32.15C529.84 30.93 530.25 29.91 531.06 29.1C531.88 28.28 532.89 27.67 534.11 27.67C535.33 27.67 545.09 27.67 546.31 27.67C546.92 27.67 547.53 27.88 548.14 28.08C548.75 28.28 549.16 28.69 549.57 29.1C549.97 29.51 550.18 29.91 550.58 30.52C550.79 31.13 550.99 31.54 550.99 32.15C550.99 32.86 550.99 36.38 550.99 42.73C550.77 42.73 550.64 42.73 550.58 42.73Z" id="d4AVuqQgfP"></path><path d="M191.12 24.83L224.67 43.14L196.81 59.83L196.81 53.11L209.01 45.58L209.01 38.66L191.12 49.85L191.12 70L236.25 42.94L196.81 21.57L196.81 14.65L236.25 36.63L236.25 30.12L191.12 4.88L191.12 24.83Z" id="a5dfdhIv5L"></path><linearGradient id="gradientdyMSRlush" gradientUnits="userSpaceOnUse" x1="191.12" y1="37.43" x2="236.21" y2="37.43"><stop style="stop-color: #ca446b;stop-opacity: 1" offset="0%"></stop><stop style="stop-color: #a7377f;stop-opacity: 1" offset="100%"></stop></linearGradient></defs><g><g><g><g><use xlink:href="#b1ksVYyYW" opacity="1" fill="#ffffff" fill-opacity="1"></use><g><use xlink:href="#b1ksVYyYW" opacity="1" fill-opacity="0" stroke="#000000" stroke-width="1" stroke-opacity="0"></use></g></g><g><use xlink:href="#b4qOjdvKe" opacity="1" fill="#ffffff" fill-opacity="1"></use><g><use xlink:href="#b4qOjdvKe" opacity="1" fill-opacity="0" stroke="#000000" stroke-width="1" stroke-opacity="0"></use></g></g><g><use xlink:href="#fVe2dSZVX" opacity="1" fill="#ffffff" fill-opacity="1"></use><g><use xlink:href="#fVe2dSZVX" opacity="1" fill-opacity="0" stroke="#000000" stroke-width="1" stroke-opacity="0"></use></g></g><g><use xlink:href="#d8L29SQ1Eu" opacity="1" fill="#ffffff" fill-opacity="1"></use><g><use xlink:href="#d8L29SQ1Eu" opacity="1" fill-opacity="0" stroke="#000000" stroke-width="1" stroke-opacity="0"></use></g></g><g><use xlink:href="#b1KNSAzQj5" opacity="1" fill="#ffffff" fill-opacity="1"></use><g><use xlink:href="#b1KNSAzQj5" opacity="1" fill-opacity="0" stroke="#000000" stroke-width="1" stroke-opacity="0"></use></g></g><g><use xlink:href="#dgnSpFCVQ" opacity="1" fill="#ffffff" fill-opacity="1"></use><g><use xlink:href="#dgnSpFCVQ" opacity="1" fill-opacity="0" stroke="#000000" stroke-width="1" stroke-opacity="0"></use></g></g><g><use xlink:href="#d1i4ZDt1p9" opacity="1" fill="#ffffff" fill-opacity="1"></use><g><use xlink:href="#d1i4ZDt1p9" opacity="1" fill-opacity="0" stroke="#000000" stroke-width="1" stroke-opacity="0"></use></g></g><g><use xlink:href="#c1Swbw1l" opacity="1" fill="#ffffff" fill-opacity="1"></use><g><use xlink:href="#c1Swbw1l" opacity="1" fill-opacity="0" stroke="#000000" stroke-width="1" stroke-opacity="0"></use></g></g><g><use xlink:href="#b53npI69lu" opacity="1" fill="#ffffff" fill-opacity="1"></use><g><use xlink:href="#b53npI69lu" opacity="1" fill-opacity="0" stroke="#000000" stroke-width="1" stroke-opacity="0"></use></g></g><g><use xlink:href="#hycUt03lb" opacity="1" fill="#ffffff" fill-opacity="1"></use><g><use xlink:href="#hycUt03lb" opacity="1" fill-opacity="0" stroke="#000000" stroke-width="1" stroke-opacity="0"></use></g></g><g><use xlink:href="#b5hi5AnzF" opacity="1" fill="#ffffff" fill-opacity="1"></use><g><use xlink:href="#b5hi5AnzF" opacity="1" fill-opacity="0" stroke="#000000" stroke-width="1" stroke-opacity="0"></use></g></g><g><use xlink:href="#d4AVuqQgfP" opacity="1" fill="#ffffff" fill-opacity="1"></use><g><use xlink:href="#d4AVuqQgfP" opacity="1" fill-opacity="0" stroke="#000000" stroke-width="1" stroke-opacity="0"></use></g></g><g><use xlink:href="#a5dfdhIv5L" opacity="1" fill="url(#gradientdyMSRlush)"></use><g><use xlink:href="#a5dfdhIv5L" opacity="1" fill-opacity="0" stroke="#000000" stroke-width="1" stroke-opacity="0"></use></g></g></g></g></g></svg>