<?xml version="1.0" encoding="utf-8"?>
<!-- Generator: Adobe Illustrator 23.1.0, SVG Export Plug-In . SVG Version: 6.00 Build 0)  -->
<svg version="1.1" id="Camada_1" xmlns="http://www.w3.org/2000/svg" xmlns:xlink="http://www.w3.org/1999/xlink" x="0px" y="0px"
	 viewBox="0 0 600 600" style="enable-background:new 0 0 600 600;" xml:space="preserve">
<style type="text/css">
	.st0{fill:#EF3063;}
	.st1{fill:#636462;}
</style>
<path class="st0" d="M300,25C148.12,25,25,148.12,25,300v0c0,151.88,123.12,275,275,275c151.88,0,275-123.12,275-275v0
	C575,148.12,451.88,25,300,25z M377.15,191.43c0,0-26.08,0-36.43,0c-12.87,0-15.54,5.26-15.54,18.57c0,11.07,0,32.15,0,32.15h51.97
	l-5.01,56.44h-46.97v168.57h-67.32V299.29h-35.02v-57.15h35.02c0,0,0-8.22,0-45c0-42.22,22.59-64.29,72.68-64.29
	c8.2,0,46.61,0,46.61,0V191.43z"/>
</svg>
