<?xml version="1.0" encoding="utf-8"?>
<!-- Generator: Adobe Illustrator 23.1.0, SVG Export Plug-In . SVG Version: 6.00 Build 0)  -->
<svg version="1.1" id="Camada_1" xmlns="http://www.w3.org/2000/svg" xmlns:xlink="http://www.w3.org/1999/xlink" x="0px" y="0px"
	 viewBox="0 0 600 600" style="enable-background:new 0 0 600 600;" xml:space="preserve">
<style type="text/css">
	.st0{fill:#EF3063;}
	.st1{fill:#636462;}
</style>
<g>
	<path class="st1" d="M300,14.74L53.67,158.41V441.6L300,585.26L546.33,441.6V158.41L300,14.74z M530.33,432.4L300,566.74
		L69.67,432.4V167.6L300,33.26L530.33,167.6V432.4z"/>
	<path class="st1" d="M226,168.07v68.83c0,8.93,6.74,15.67,15.67,15.67h50.08v25.34H173.81c-4.86,0-8.25,3.39-8.25,8.25v34.27
		h-26.17c-8.93,0-15.67,6.74-15.67,15.67v68.83c0,8.93,6.74,15.67,15.67,15.67h68.83c8.93,0,15.67-6.74,15.67-15.67V336.1
		c0-8.93-6.74-15.67-15.67-15.67h-26.17v-26.02h109.69v26.02h-26.17c-8.93,0-15.67,6.74-15.67,15.67v68.83
		c0,8.93,6.74,15.67,15.67,15.67h68.83c8.93,0,15.67-6.74,15.67-15.67V336.1c0-8.93-6.74-15.67-15.67-15.67h-26.17v-26.02h109.69
		v26.02h-26.17c-8.93,0-15.67,6.74-15.67,15.67v68.83c0,8.93,6.74,15.67,15.67,15.67h68.83c8.93,0,15.67-6.74,15.67-15.67V336.1
		c0-8.64-7.03-15.67-15.67-15.67h-26.17v-34.27c0-4.86-3.39-8.25-8.25-8.25H308.25V251.9h50.08c8.93,0,15.67-6.74,15.67-15.67
		v-68.16c0-8.93-6.74-15.67-15.67-15.67H241.67C232.74,152.4,226,159.14,226,168.07z M207.4,337.59v66.52h-67.18v-67.17
		L207.4,337.59z M459.78,336.93v65.85l-67.18,0.65v-66.5H459.78z M333.59,337.59v66.52h-67.18v-67.17L333.59,337.59z M242.5,168.9
		h115v67.17l-115-1.32V168.9z"/>
</g>
</svg>
