<?xml version="1.0" encoding="utf-8"?>
<!-- Generator: Adobe Illustrator 23.1.0, SVG Export Plug-In . SVG Version: 6.00 Build 0)  -->
<svg version="1.1" id="Camada_1" xmlns="http://www.w3.org/2000/svg" xmlns:xlink="http://www.w3.org/1999/xlink" x="0px" y="0px"
	 viewBox="0 0 600 600" style="enable-background:new 0 0 600 600;" xml:space="preserve">
<style type="text/css">
	.st0{fill:#EF3063;}
	.st1{fill:#636462;}
</style>
<g>
	<path class="st0" d="M300,25C148.12,25,25,148.12,25,300v0c0,151.88,123.12,275,275,275c151.88,0,275-123.12,275-275v0
		C575,148.12,451.88,25,300,25z M449.88,362.17c-0.73,16.05-3.28,27.01-7.01,36.6c-3.85,9.91-9.01,18.32-17.39,26.71
		c-8.38,8.38-16.79,13.54-26.71,17.39c-9.59,3.72-20.55,6.28-36.6,7.01c-16.08,0.73-21.22,0.9-62.17,0.9
		c-40.95,0-46.08-0.17-62.17-0.9c-16.05-0.73-27.01-3.28-36.6-7.01c-9.92-3.85-18.32-9.01-26.71-17.39
		c-8.38-8.38-13.54-16.79-17.39-26.71c-3.73-9.59-6.28-20.55-7.01-36.6c-0.74-16.08-0.91-21.22-0.91-62.17
		c0-40.95,0.17-46.08,0.91-62.17c0.73-16.05,3.28-27.01,7.01-36.6c3.85-9.91,9.01-18.33,17.39-26.71
		c8.38-8.38,16.79-13.54,26.71-17.39c9.59-3.73,20.55-6.28,36.6-7.01c16.08-0.73,21.22-0.91,62.17-0.91
		c40.95,0,46.08,0.18,62.17,0.91c16.05,0.73,27.01,3.28,36.6,7.01c9.92,3.85,18.33,9.01,26.71,17.39
		c8.38,8.38,13.54,16.79,17.39,26.71c3.73,9.59,6.28,20.55,7.01,36.6c0.73,16.08,0.9,21.22,0.9,62.17
		C450.78,340.95,450.61,346.09,449.88,362.17z"/>
	<path class="st0" d="M300,249.74c-27.76,0-50.26,22.5-50.26,50.26c0,27.76,22.5,50.26,50.26,50.26c27.76,0,50.26-22.5,50.26-50.26
		C350.26,272.24,327.76,249.74,300,249.74z"/>
	<path class="st0" d="M417.54,211.07c-2.74-7.04-6-12.06-11.28-17.34c-5.27-5.28-10.3-8.54-17.33-11.28
		c-5.32-2.07-13.3-4.52-28-5.19c-15.9-0.73-20.67-0.88-60.93-0.88c-40.26,0-45.03,0.15-60.93,0.88c-14.7,0.67-22.68,3.13-28,5.19
		c-7.04,2.74-12.06,6-17.34,11.28c-5.27,5.28-8.54,10.3-11.28,17.34c-2.06,5.32-4.52,13.3-5.19,28c-0.72,15.9-0.88,20.67-0.88,60.93
		c0,40.26,0.15,45.03,0.88,60.93c0.67,14.7,3.13,22.69,5.19,28c2.74,7.04,6,12.06,11.28,17.34c5.28,5.27,10.3,8.54,17.34,11.28
		c5.31,2.07,13.3,4.52,28,5.19c15.9,0.72,20.66,0.88,60.93,0.88c40.27,0,45.03-0.15,60.93-0.88c14.7-0.67,22.68-3.13,28-5.19
		c7.04-2.74,12.06-6,17.33-11.28c5.28-5.28,8.54-10.3,11.28-17.34c2.07-5.31,4.52-13.29,5.19-28c0.72-15.9,0.88-20.67,0.88-60.93
		c0-40.26-0.16-45.03-0.88-60.93C422.07,224.37,419.61,216.39,417.54,211.07z M300,377.43c-42.76,0-77.43-34.67-77.43-77.43
		c0-42.76,34.67-77.43,77.43-77.43c42.76,0,77.43,34.67,77.43,77.43C377.43,342.76,342.76,377.43,300,377.43z M380.49,237.61
		c-10,0-18.1-8.1-18.1-18.1c0-9.99,8.1-18.09,18.1-18.09c9.99,0,18.09,8.1,18.09,18.09C398.58,229.5,390.48,237.61,380.49,237.61z"
		/>
</g>
</svg>
