<?xml version="1.0" encoding="utf-8"?>
<!-- Generator: Adobe Illustrator 23.1.0, SVG Export Plug-In . SVG Version: 6.00 Build 0)  -->
<svg version="1.1" id="Camada_1" xmlns="http://www.w3.org/2000/svg" xmlns:xlink="http://www.w3.org/1999/xlink" x="0px" y="0px"
	 viewBox="0 0 600 600" style="enable-background:new 0 0 600 600;" xml:space="preserve">
<style type="text/css">
	.st0{fill:#EF3063;}
	.st1{fill:#636462;}
</style>
<g>
	<path class="st1" d="M300,14.74L53.67,158.41V441.6L300,585.26L546.33,441.6V158.41L300,14.74z M530.33,432.4L300,566.74
		L69.67,432.4V167.6L300,33.26L530.33,167.6V432.4z"/>
	<path class="st1" d="M259.33,264.38c0,13.05,6.19,24.68,15.78,32.13c-5.27,2.05-10.18,4.82-14.74,8.25
		c-8.88-16.13-20.84-27.23-35.48-32.91c9.59-7.45,15.78-19.07,15.78-32.13c0-22.42-18.24-40.67-40.67-40.67
		s-40.67,18.24-40.67,40.67c0,13.05,6.19,24.68,15.78,32.13c-18.76,7.29-33.15,23.42-42.25,47.71c-9.27,24.75-9.75,49.11-9.77,50.13
		c-0.03,1.74,0.65,3.42,1.87,4.66c1.22,1.24,2.89,1.94,4.63,1.94h95.18c-1.53,10.34-1.67,17.52-1.68,18.07
		c-0.03,1.74,0.65,3.42,1.87,4.66c1.22,1.24,2.89,1.94,4.63,1.94H370.4c1.74,0,3.41-0.7,4.63-1.94c1.22-1.24,1.89-2.92,1.87-4.66
		c-0.01-0.55-0.15-7.73-1.68-18.07h95.18c1.74,0,3.41-0.7,4.63-1.94c1.22-1.24,1.89-2.92,1.87-4.66
		c-0.02-1.03-0.49-25.39-9.77-50.13c-9.1-24.29-23.49-40.42-42.25-47.71c9.59-7.45,15.78-19.07,15.78-32.13
		c0-22.42-18.24-40.67-40.67-40.67s-40.67,18.24-40.67,40.67c0,13.05,6.19,24.68,15.78,32.13c-14.64,5.69-26.6,16.78-35.48,32.91
		c-4.56-3.43-9.47-6.2-14.74-8.25c9.59-7.45,15.78-19.07,15.78-32.13c0-22.42-18.24-40.67-40.67-40.67S259.33,241.96,259.33,264.38z
		 M172.33,239.71c0-15.26,12.41-27.67,27.67-27.67s27.67,12.41,27.67,27.67s-12.41,27.67-27.67,27.67S172.33,254.97,172.33,239.71z
		 M227.21,363.29H136.5c0.75-8.53,2.84-24.11,8.64-39.45c10.89-28.83,29.35-43.45,54.86-43.45c22.37,0,39.32,11.25,50.5,33.47
		c-7.14,8-13.06,18.15-17.64,30.37C230.42,350.74,228.59,357.24,227.21,363.29z M372.33,239.71c0-15.26,12.41-27.67,27.67-27.67
		s27.67,12.41,27.67,27.67s-12.41,27.67-27.67,27.67S372.33,254.97,372.33,239.71z M400,280.38c25.51,0,43.97,14.62,54.86,43.45
		c5.79,15.34,7.89,30.92,8.64,39.45h-90.71c-1.38-6.05-3.2-12.54-5.65-19.07c-4.58-12.22-10.5-22.37-17.64-30.37
		C360.68,291.63,377.63,280.38,400,280.38z M333.95,316.82c3.59,2.99,6.89,6.55,9.89,10.67c4.27,5.87,7.95,12.87,11.02,21.01
		c1.88,4.99,3.37,10,4.55,14.79c1.14,4.62,1.99,9.03,2.63,13c0.73,4.58,1.18,8.59,1.45,11.67H236.5c0.27-3.08,0.72-7.09,1.45-11.67
		c0.64-3.98,1.49-8.38,2.63-13c1.18-4.79,2.67-9.8,4.55-14.79c3.07-8.14,6.75-15.15,11.02-21.01c3-4.13,6.3-7.68,9.89-10.67
		c9.37-7.82,20.71-11.77,33.95-11.77S324.58,309,333.95,316.82z M327.67,264.38c0,15.26-12.41,27.67-27.67,27.67
		s-27.67-12.41-27.67-27.67s12.41-27.67,27.67-27.67S327.67,249.12,327.67,264.38z"/>
</g>
</svg>
